M48
; DRILL file {KiCad (6.0.1)} date Thu Nov 16 23:02:18 2023
; FORMAT={-:-/ absolute / metric / decimal}
; #@! TF.CreationDate,2023-11-16T23:02:18-08:00
; #@! TF.GenerationSoftware,Kicad,Pcbnew,(6.0.1)
; #@! TF.FileFunction,Plated,1,2,PTH
FMAT,2
METRIC
; #@! TA.AperFunction,Plated,PTH,ComponentDrill
T1C0.700
; #@! TA.AperFunction,Plated,PTH,ComponentDrill
T2C0.750
; #@! TA.AperFunction,Plated,PTH,ComponentDrill
T3C0.800
; #@! TA.AperFunction,Plated,PTH,ComponentDrill
T4C0.900
; #@! TA.AperFunction,Plated,PTH,ComponentDrill
T5C1.100
; #@! TA.AperFunction,Plated,PTH,ComponentDrill
T6C1.200
; #@! TA.AperFunction,Plated,PTH,ComponentDrill
T7C1.300
%
G90
G05
T1
X129.73Y-94.5
X131.0Y-94.5
X151.73Y-94.5
X153.0Y-94.5
X173.73Y-94.5
X175.0Y-94.5
T2
X118.0Y-76.46
X118.0Y-77.73
X118.0Y-79.0
X130.0Y-70.46
X130.0Y-71.73
X130.0Y-73.0
X131.0Y-111.5
X131.0Y-113.5
X132.0Y-76.46
X132.0Y-77.73
X132.0Y-79.0
X139.86Y-76.46
X139.86Y-77.73
X139.86Y-79.0
X151.86Y-70.23
X151.86Y-71.5
X151.86Y-72.77
X153.05Y-111.5
X153.05Y-113.5
X153.86Y-76.46
X153.86Y-77.73
X153.86Y-79.0
X161.86Y-76.46
X161.86Y-77.73
X161.86Y-79.0
X173.86Y-70.23
X173.86Y-71.5
X173.86Y-72.77
X175.0Y-111.5
X175.0Y-113.5
X175.86Y-76.46
X175.86Y-77.73
X175.86Y-79.0
T3
X116.5Y-65.19
X116.5Y-72.81
X117.697Y-133.0
X121.497Y-133.0
X121.5Y-65.19
X121.5Y-72.81
X122.5Y-76.19
X122.5Y-83.81
X125.19Y-66.0
X126.5Y-76.19
X126.5Y-83.81
X127.5Y-117.69
X127.5Y-125.31
X131.0Y-82.25
X131.0Y-89.75
X132.5Y-117.69
X132.5Y-125.31
X132.81Y-66.0
X138.5Y-65.19
X138.5Y-72.81
X139.697Y-133.0
X143.497Y-133.0
X143.5Y-65.19
X143.5Y-72.81
X144.5Y-76.19
X144.5Y-83.81
X147.19Y-66.0
X148.5Y-76.19
X148.5Y-83.81
X149.5Y-117.69
X149.5Y-125.31
X153.0Y-82.25
X153.0Y-89.75
X154.5Y-117.69
X154.5Y-125.31
X154.81Y-66.0
X160.5Y-65.19
X160.5Y-72.81
X161.697Y-133.0
X165.497Y-133.0
X165.5Y-65.19
X165.5Y-72.81
X166.5Y-76.19
X166.5Y-83.81
X169.19Y-66.0
X170.5Y-76.19
X170.5Y-83.81
X171.5Y-117.69
X171.5Y-125.31
X175.0Y-82.25
X175.0Y-89.75
X176.5Y-117.69
X176.5Y-125.31
X176.81Y-66.0
T4
X128.225Y-132.5
X130.765Y-132.5
X150.225Y-132.5
X152.765Y-132.5
X172.225Y-132.5
X174.765Y-132.5
T5
X117.0Y-117.0
X117.0Y-127.16
X122.5Y-116.92
X122.5Y-127.08
X129.5Y-100.5
X129.5Y-103.04
X129.5Y-105.58
X139.5Y-116.92
X139.5Y-127.08
X144.5Y-116.92
X144.5Y-127.08
X151.555Y-100.5
X151.555Y-103.04
X151.555Y-105.58
X161.5Y-116.92
X161.5Y-127.08
X166.5Y-116.92
X166.5Y-127.08
X173.555Y-100.46
X173.555Y-103.0
X173.555Y-105.54
T6
X117.824Y-93.0
X117.824Y-107.0
X122.824Y-93.0
X122.824Y-107.0
X139.824Y-93.0
X139.824Y-107.0
X144.824Y-93.0
X144.824Y-107.0
X161.824Y-93.0
X161.824Y-107.0
X166.824Y-93.0
X166.824Y-107.0
T7
X135.195Y-55.455
X135.195Y-60.535
X157.305Y-55.465
X157.305Y-60.545
T0
M30
